<svg width="27" height="36" viewBox="0 0 27 36" fill="none" xmlns="http://www.w3.org/2000/svg">
<g id="Group">
<path id="Vector" d="M2.34255 26.987C1.04 23.0122 2.62781 18.4466 6.81385 14.1307C11.3869 9.42116 11.6859 4.78012 11.3507 2.14604C12.3041 2.81702 13.1707 3.67356 13.9324 4.69884C15.3044 6.54019 16.2001 8.57666 16.5946 10.7521C16.6879 11.2669 17.1804 11.6074 17.6959 11.5154C18.2107 11.422 18.5525 10.9287 18.4591 10.414C18.0121 7.94819 17.0001 5.64472 15.4524 3.56758C14.4402 2.20526 13.2573 1.09255 11.9366 0.260566C11.3687 -0.0968614 10.671 -0.085498 10.1166 0.288061C9.56194 0.661881 9.29016 1.30406 9.40678 1.95913C9.77769 4.1095 9.75681 8.37912 5.45363 12.8122C0.753645 17.6573 -0.990991 22.9011 0.541877 27.5771C0.672741 27.9765 1.04366 28.2301 1.44208 28.2301C1.53989 28.2301 1.6393 28.2145 1.73738 28.1828C2.23467 28.0194 2.50541 27.4843 2.34253 26.987L2.34255 26.987Z" fill="white"/>
<path id="Vector_2" d="M23.5061 14.4929L23.4204 14.358C23.1135 13.875 22.796 13.3756 22.3944 12.872C21.9748 12.352 21.2648 12.1963 20.667 12.4929C20.0653 12.7919 19.7578 13.456 19.9183 14.1087C19.9194 14.1127 19.9205 14.1169 19.9215 14.1209H19.9213C20.3331 15.8301 20.6562 17.5614 19.7066 18.3266C19.7013 18.325 19.1728 18.0746 18.8923 16.1143C18.8183 15.5964 18.339 15.2344 17.8203 15.3108C17.3024 15.3849 16.9423 15.865 17.0166 16.3831C17.3095 18.4318 17.9781 19.678 19.0039 20.0865C19.6365 20.3382 20.3416 20.2298 20.8899 19.7952C22.1195 18.8196 22.3149 17.3429 22.1882 15.9562C24.4872 19.7219 25.0836 23.4354 24.0119 27.2925C23.1463 30.4033 20.7725 32.8914 17.9249 33.7855C19.7303 29.8151 17.6169 27.7083 15.567 25.6653C13.618 23.7224 11.6027 21.714 11.6027 17.6589C11.6027 17.2755 11.3717 16.9299 11.0177 16.7835C10.6637 16.6373 10.2563 16.7179 9.98503 16.9889C3.34983 23.627 7.31861 30.495 9.49621 33.5906C7.28052 32.8975 5.3432 31.6306 3.99409 29.9822C3.66257 29.5772 3.06532 29.518 2.66087 29.8493C2.25585 30.1808 2.19637 30.7775 2.5279 31.1828C4.24681 33.2824 6.75995 34.8485 9.60038 35.5909C9.71036 35.6205 9.83276 35.6686 9.9586 35.7165C10.4834 35.9156 11.7127 36.3806 12.3017 35.3157C12.6504 34.6912 12.3102 34.2294 11.6321 33.3086C8.91672 29.6222 6.40832 24.8771 9.91871 19.9738C10.5625 23.3514 12.5648 25.3471 14.2301 27.0077C16.4154 29.1859 17.7415 30.5074 15.6942 33.9644C15.6032 34.0691 15.5382 34.1701 15.4906 34.2439L15.4549 34.2983C15.2077 34.6362 15.2117 35.0962 15.4647 35.4301C15.7523 35.8095 16.1241 36.0001 16.5735 36.0001C16.7282 36.0001 16.8921 35.9776 17.0647 35.9324L17.1202 35.9184C21.1643 35.2688 24.6678 32.0065 25.838 27.8003C27.1041 23.2412 26.3403 18.8869 23.5062 14.4932L23.5061 14.4929Z" fill="white"/>
<path id="Vector_3" d="M17.1098 12.7433C16.9356 12.9212 16.833 13.1636 16.833 13.414C16.833 13.6641 16.9353 13.9065 17.1098 14.085C17.288 14.2592 17.5304 14.3615 17.7805 14.3615C18.0306 14.3615 18.273 14.2594 18.4512 14.085C18.6255 13.9065 18.728 13.6641 18.728 13.414C18.728 13.1639 18.6257 12.9215 18.4512 12.7433C18.0988 12.3906 17.4659 12.3906 17.1098 12.7433H17.1098Z" fill="white"/>
</g>
</svg>
